<svg width="69" height="70" viewBox="0 0 69 70" fill="none" xmlns="http://www.w3.org/2000/svg">
<path d="M3 3H8.27451C8.82679 3 9.27451 3.44772 9.27451 4V8.29569C9.27451 8.84797 9.72223 9.29569 10.2745 9.29569H12.4118M22.451 35.108H47.0504C47.3644 35.108 47.6601 34.9606 47.8491 34.7098L65.7929 10.8975C66.2895 10.2386 65.8194 9.29569 64.9943 9.29569H12.4118M22.451 35.108L12.5167 15.1725C12.4477 15.0339 12.4118 14.8812 12.4118 14.7265V9.29569M22.451 35.108L16.6721 43.8055C16.39 44.2302 16.4725 44.7991 16.8636 45.1261L19.9412 47.6994M19.9412 47.6994H56.8297C57.5119 47.6994 57.9938 48.3673 57.7787 49.0147L57.1883 50.7921C57.0524 51.2009 56.6701 51.4768 56.2393 51.4768H21.9176C21.4868 51.4768 21.1044 51.2009 20.9686 50.7921L19.9412 47.6994ZM59.4706 65.9569C58.0845 67.3477 55.8371 67.3477 54.451 65.9569C53.0649 64.5661 53.0649 62.3112 54.451 60.9203C55.8371 59.5295 58.0845 59.5295 59.4706 60.9203C60.8567 62.3112 60.8567 64.5661 59.4706 65.9569ZM22.451 65.9569C21.0649 67.3477 18.8175 67.3477 17.4314 65.9569C16.0452 64.5661 16.0452 62.3112 17.4314 60.9203C18.8175 59.5295 21.0649 59.5295 22.451 60.9203C23.8371 62.3112 23.8371 64.5661 22.451 65.9569Z" stroke="#003F12" stroke-width="5" stroke-linecap="round"/>
</svg>
