<svg width="78" height="78" viewBox="0 0 78 78" fill="none" xmlns="http://www.w3.org/2000/svg">
<path fill-rule="evenodd" clip-rule="evenodd" d="M4.14392 30.2026C3.19215 30.3748 2.5 31.2034 2.5 32.1706V45.8294C2.5 46.7966 3.19216 47.6252 4.14393 47.7974L8.31393 48.5519C9.05606 48.6862 9.65222 49.2293 9.90794 49.9388C10.1399 50.5823 10.4021 51.2151 10.6933 51.8341C11.0141 52.5161 10.9766 53.3212 10.5472 53.9407L8.13111 57.4264C7.58023 58.2211 7.67686 59.2962 8.36063 59.9799L18.0194 69.6387C18.7033 70.3226 19.7786 70.4191 20.5734 69.8679L24.0562 67.4522C24.6759 67.0224 25.4815 66.9848 26.1639 67.3062C26.7841 67.5983 27.4182 67.8615 28.0631 68.0944C28.7718 68.3503 29.3142 68.9462 29.4483 69.6877L30.2026 73.8561C30.3748 74.8079 31.2034 75.5 32.1706 75.5H45.8293C46.7966 75.5 47.6252 74.8078 47.7974 73.856L48.5513 69.6883C48.6854 68.9466 49.2279 68.3506 49.937 68.0948C50.5826 67.862 51.2174 67.5988 51.8385 67.3067C52.5205 66.9859 53.3255 67.0238 53.9448 67.4534L57.4259 69.8681C58.2206 70.4194 59.2961 70.3229 59.98 69.639L69.6387 59.9803C70.3226 59.2964 70.4191 58.221 69.8678 57.4262L67.4531 53.9449C67.0236 53.3256 66.9857 52.5207 67.3065 51.8387C67.5986 51.2176 67.8618 50.5828 68.0947 49.9372C68.3504 49.2282 68.9464 48.6857 69.688 48.5515L73.8561 47.7974C74.8078 47.6252 75.5 46.7966 75.5 45.8294V32.1706C75.5 31.2034 74.8078 30.3748 73.8561 30.2026L69.688 29.4485C68.9464 29.3143 68.3504 28.7718 68.0947 28.0628C67.8616 27.4167 67.5981 26.7813 67.3056 26.1596C66.9848 25.4777 67.0226 24.6728 67.452 24.0535L69.8648 20.5735C70.4158 19.7788 70.3193 18.7038 69.6356 18.0199L59.98 8.36165C59.2961 7.67754 58.2206 7.58097 57.4257 8.13229L53.9444 10.547C53.3252 10.9764 52.5204 11.0143 51.8385 10.6939C51.218 10.4024 50.5839 10.1398 49.9389 9.9076C49.2292 9.65205 48.686 9.0558 48.5517 8.31354L47.7974 4.14396C47.6252 3.19217 46.7966 2.5 45.8294 2.5H32.1706C31.2034 2.5 30.3748 3.19212 30.2025 4.14386L29.4478 8.31413C29.3136 9.05621 28.7705 9.65232 28.0611 9.90805C27.4169 10.1402 26.7836 10.4028 26.164 10.6943C25.4817 11.0153 24.6763 10.9777 24.0567 10.548L20.5734 8.1321C19.7787 7.58087 18.7033 7.67738 18.0194 8.36133L13.1903 13.1906L8.35814 18.0195C7.67369 18.7034 7.57707 19.7793 8.12871 20.5743L10.5465 24.0587C10.9764 24.6783 11.0142 25.4838 10.6932 26.1662C10.4021 26.7851 10.1398 27.4178 9.90794 28.0612C9.65222 28.7707 9.05606 29.3138 8.31393 29.4481L4.14392 30.2026ZM39 62C51.7025 62 62 51.7025 62 39C62 26.2975 51.7025 16 39 16C26.2975 16 16 26.2975 16 39C16 51.7025 26.2975 62 39 62Z" fill="white" stroke="#003F12" stroke-width="5" stroke-linecap="round"/>
</svg>
