<svg width="26" height="27" viewBox="0 0 26 27" fill="none" xmlns="http://www.w3.org/2000/svg">
<path d="M15.617 15.9578C14.2509 17.2965 12.0615 17.2856 10.709 15.9331C9.35658 14.5807 9.34564 12.3912 10.6844 11.0252C12.0423 9.63951 14.2702 9.62813 15.6421 11C17.014 12.3719 17.0027 14.5998 15.617 15.9578Z" fill="#65A900"/>
<path d="M22.3466 13.3566C22.3273 8.30532 18.2372 4.21523 13.1859 4.19588M22.3466 13.3566C22.3662 18.4629 18.2218 22.6074 13.1154 22.5878M22.3466 13.3566H25.8073M13.1859 4.19588C8.07957 4.17631 3.93513 8.32075 3.9547 13.4271M13.1859 4.19588L13.1154 0.735205M13.1154 22.5878C8.06414 22.5685 3.97405 18.4784 3.9547 13.4271M13.1154 22.5878L13.1859 26.2478M3.9547 13.4271H0.494021M15.617 15.9578C14.2509 17.2965 12.0615 17.2856 10.709 15.9331C9.35658 14.5807 9.34564 12.3912 10.6844 11.0252C12.0423 9.63951 14.2702 9.62813 15.6421 11C17.014 12.3719 17.0027 14.5998 15.617 15.9578Z" stroke="#003F12" stroke-width="5"/>
</svg>
