<svg width="80" height="81" viewBox="0 0 80 81" fill="none" xmlns="http://www.w3.org/2000/svg">
<path d="M2.25 66.2955V14.7461C2.25 8.11866 7.62258 2.74609 14.25 2.74609H65.839C72.4664 2.74609 77.839 8.11866 77.839 14.7461V66.2955C77.839 72.923 72.4664 78.2955 65.839 78.2955H61.2646H19.5297H14.25C7.62258 78.2955 2.25 72.923 2.25 66.2955Z" fill="white"/>
<path d="M19.5297 78.2955L19.3375 62.8761C19.3375 55.193 25.566 48.9645 33.2492 48.9645H47.1608C54.8439 48.9645 61.0724 55.193 61.0724 62.8761L61.2646 78.2955M27.287 30.0845C27.4242 23.0873 33.2065 17.6634 40.205 17.6634C47.2035 17.6634 52.9857 23.0873 53.1229 30.0845C53.2628 37.2175 47.3393 43.0024 40.205 43.0024C33.0706 43.0024 27.1472 37.2175 27.287 30.0845ZM77.839 14.7461V66.2955C77.839 72.923 72.4664 78.2955 65.839 78.2955H14.25C7.62258 78.2955 2.25 72.923 2.25 66.2955V14.7461C2.25 8.11866 7.62258 2.74609 14.25 2.74609H65.839C72.4664 2.74609 77.839 8.11866 77.839 14.7461Z" stroke="#003F12" stroke-width="4"/>
</svg>
