<svg width="334" height="80" viewBox="0 0 334 80" fill="none" xmlns="http://www.w3.org/2000/svg">
<rect x="2.5" y="2.5" width="329" height="75" rx="5.5" fill="#EDEDEF" stroke="#003F12" stroke-width="5"/>
<path d="M65.2273 54V19.0909H86.1591V22.8409H69.4545V34.6364H84.5909V38.3864H69.4545V54H65.2273ZM101.909 54.5455C99.3864 54.5455 97.2102 53.9886 95.3807 52.875C93.5625 51.75 92.1591 50.1818 91.1705 48.1705C90.1932 46.1477 89.7045 43.7955 89.7045 41.1136C89.7045 38.4318 90.1932 36.0682 91.1705 34.0227C92.1591 31.9659 93.5341 30.3636 95.2955 29.2159C97.0682 28.0568 99.1364 27.4773 101.5 27.4773C102.864 27.4773 104.21 27.7045 105.54 28.1591C106.869 28.6136 108.08 29.3523 109.17 30.375C110.261 31.3864 111.131 32.7273 111.778 34.3977C112.426 36.0682 112.75 38.125 112.75 40.5682V42.2727H92.5682V38.7955H108.659C108.659 37.3182 108.364 36 107.773 34.8409C107.193 33.6818 106.364 32.767 105.284 32.0966C104.216 31.4261 102.955 31.0909 101.5 31.0909C99.8977 31.0909 98.5114 31.4886 97.3409 32.2841C96.1818 33.0682 95.2898 34.0909 94.6648 35.3523C94.0398 36.6136 93.7273 37.9659 93.7273 39.4091V41.7273C93.7273 43.7045 94.0682 45.3807 94.75 46.7557C95.4432 48.1193 96.4034 49.1591 97.6307 49.875C98.858 50.5795 100.284 50.9318 101.909 50.9318C102.966 50.9318 103.92 50.7841 104.773 50.4886C105.636 50.1818 106.381 49.7273 107.006 49.125C107.631 48.5114 108.114 47.75 108.455 46.8409L112.341 47.9318C111.932 49.25 111.244 50.4091 110.278 51.4091C109.313 52.3977 108.119 53.1705 106.699 53.7273C105.278 54.2727 103.682 54.5455 101.909 54.5455ZM129.506 54.5455C127.051 54.5455 124.938 53.9659 123.165 52.8068C121.392 51.6477 120.028 50.0511 119.074 48.017C118.119 45.983 117.642 43.6591 117.642 41.0455C117.642 38.3864 118.131 36.0398 119.108 34.0057C120.097 31.9602 121.472 30.3636 123.233 29.2159C125.006 28.0568 127.074 27.4773 129.438 27.4773C131.278 27.4773 132.938 27.8182 134.415 28.5C135.892 29.1818 137.102 30.1364 138.045 31.3636C138.989 32.5909 139.574 34.0227 139.801 35.6591H135.778C135.472 34.4659 134.79 33.4091 133.733 32.4886C132.688 31.5568 131.278 31.0909 129.506 31.0909C127.938 31.0909 126.563 31.5 125.381 32.3182C124.21 33.125 123.295 34.267 122.636 35.7443C121.989 37.2102 121.665 38.9318 121.665 40.9091C121.665 42.9318 121.983 44.6932 122.619 46.1932C123.267 47.6932 124.176 48.858 125.347 49.6875C126.528 50.517 127.915 50.9318 129.506 50.9318C130.551 50.9318 131.5 50.75 132.352 50.3864C133.205 50.0227 133.926 49.5 134.517 48.8182C135.108 48.1364 135.528 47.3182 135.778 46.3636H139.801C139.574 47.9091 139.011 49.3011 138.114 50.5398C137.227 51.767 136.051 52.7443 134.585 53.4716C133.131 54.1875 131.438 54.5455 129.506 54.5455ZM149.705 38.25V54H145.682V19.0909H149.705V31.9091H150.045C150.659 30.5568 151.58 29.483 152.807 28.6875C154.045 27.8807 155.693 27.4773 157.75 27.4773C159.534 27.4773 161.097 27.8352 162.438 28.5511C163.778 29.2557 164.818 30.3409 165.557 31.8068C166.307 33.2614 166.682 35.1136 166.682 37.3636V54H162.659V37.6364C162.659 35.5568 162.119 33.9489 161.04 32.8125C159.972 31.6648 158.489 31.0909 156.591 31.0909C155.273 31.0909 154.091 31.3693 153.045 31.9261C152.011 32.483 151.193 33.2955 150.591 34.3636C150 35.4318 149.705 36.7273 149.705 38.25ZM181.746 54.6136C180.087 54.6136 178.581 54.3011 177.229 53.6761C175.876 53.0398 174.803 52.125 174.007 50.9318C173.212 49.7273 172.814 48.2727 172.814 46.5682C172.814 45.0682 173.109 43.8523 173.7 42.9205C174.291 41.9773 175.081 41.2386 176.07 40.7045C177.058 40.1705 178.149 39.7727 179.342 39.5114C180.547 39.2386 181.757 39.0227 182.973 38.8636C184.564 38.6591 185.854 38.5057 186.842 38.4034C187.842 38.2898 188.57 38.1023 189.024 37.8409C189.49 37.5795 189.723 37.125 189.723 36.4773V36.3409C189.723 34.6591 189.263 33.3523 188.342 32.4205C187.433 31.4886 186.053 31.0227 184.2 31.0227C182.28 31.0227 180.774 31.4432 179.683 32.2841C178.592 33.125 177.825 34.0227 177.382 34.9773L173.564 33.6136C174.246 32.0227 175.155 30.7841 176.291 29.8977C177.439 29 178.689 28.375 180.041 28.0227C181.405 27.6591 182.746 27.4773 184.064 27.4773C184.905 27.4773 185.871 27.5795 186.962 27.7841C188.064 27.9773 189.126 28.3807 190.149 28.9943C191.183 29.608 192.041 30.5341 192.723 31.7727C193.405 33.0114 193.746 34.6705 193.746 36.75V54H189.723V50.4545H189.518C189.246 51.0227 188.791 51.6307 188.155 52.2784C187.518 52.9261 186.672 53.4773 185.615 53.9318C184.558 54.3864 183.268 54.6136 181.746 54.6136ZM182.359 51C183.95 51 185.291 50.6875 186.382 50.0625C187.484 49.4375 188.314 48.6307 188.871 47.642C189.439 46.6534 189.723 45.6136 189.723 44.5227V40.8409C189.553 41.0455 189.178 41.233 188.598 41.4034C188.03 41.5625 187.371 41.7045 186.621 41.8295C185.882 41.9432 185.161 42.0455 184.456 42.1364C183.763 42.2159 183.2 42.2841 182.768 42.3409C181.723 42.4773 180.746 42.6989 179.837 43.0057C178.939 43.3011 178.212 43.75 177.655 44.3523C177.109 44.9432 176.837 45.75 176.837 46.7727C176.837 48.1705 177.354 49.2273 178.388 49.9432C179.433 50.6477 180.757 51 182.359 51ZM210.974 54.5455C208.793 54.5455 206.866 53.9943 205.196 52.892C203.526 51.7784 202.219 50.2102 201.276 48.1875C200.332 46.1534 199.861 43.75 199.861 40.9773C199.861 38.2273 200.332 35.8409 201.276 33.8182C202.219 31.7955 203.531 30.233 205.213 29.1307C206.895 28.0284 208.838 27.4773 211.043 27.4773C212.747 27.4773 214.094 27.7614 215.082 28.3295C216.082 28.8864 216.844 29.5227 217.366 30.2386C217.901 30.9432 218.315 31.5227 218.611 31.9773H218.952V19.0909H222.974V54H219.088V49.9773H218.611C218.315 50.4545 217.895 51.0568 217.349 51.7841C216.804 52.5 216.026 53.142 215.014 53.7102C214.003 54.267 212.656 54.5455 210.974 54.5455ZM211.52 50.9318C213.134 50.9318 214.497 50.5114 215.611 49.6705C216.724 48.8182 217.571 47.642 218.151 46.142C218.73 44.6307 219.02 42.8864 219.02 40.9091C219.02 38.9545 218.736 37.2443 218.168 35.7784C217.599 34.3011 216.759 33.1534 215.645 32.3352C214.531 31.5057 213.156 31.0909 211.52 31.0909C209.815 31.0909 208.395 31.5284 207.259 32.4034C206.134 33.267 205.287 34.4432 204.719 35.9318C204.162 37.4091 203.884 39.0682 203.884 40.9091C203.884 42.7727 204.168 44.4659 204.736 45.9886C205.315 47.5 206.168 48.7045 207.293 49.6023C208.429 50.4886 209.838 50.9318 211.52 50.9318ZM241.537 54.5455C239.173 54.5455 237.099 53.983 235.315 52.858C233.543 51.733 232.156 50.1591 231.156 48.1364C230.168 46.1136 229.673 43.75 229.673 41.0455C229.673 38.3182 230.168 35.9375 231.156 33.9034C232.156 31.8693 233.543 30.2898 235.315 29.1648C237.099 28.0398 239.173 27.4773 241.537 27.4773C243.901 27.4773 245.969 28.0398 247.741 29.1648C249.526 30.2898 250.912 31.8693 251.901 33.9034C252.901 35.9375 253.401 38.3182 253.401 41.0455C253.401 43.75 252.901 46.1136 251.901 48.1364C250.912 50.1591 249.526 51.733 247.741 52.858C245.969 53.983 243.901 54.5455 241.537 54.5455ZM241.537 50.9318C243.332 50.9318 244.81 50.4716 245.969 49.5511C247.128 48.6307 247.986 47.4205 248.543 45.9205C249.099 44.4205 249.378 42.7955 249.378 41.0455C249.378 39.2955 249.099 37.6648 248.543 36.1534C247.986 34.642 247.128 33.4205 245.969 32.4886C244.81 31.5568 243.332 31.0909 241.537 31.0909C239.741 31.0909 238.264 31.5568 237.105 32.4886C235.946 33.4205 235.088 34.642 234.531 36.1534C233.974 37.6648 233.696 39.2955 233.696 41.0455C233.696 42.7955 233.974 44.4205 234.531 45.9205C235.088 47.4205 235.946 48.6307 237.105 49.5511C238.264 50.4716 239.741 50.9318 241.537 50.9318Z" fill="#003F12"/>
<rect x="2.5" y="2.5" width="329" height="75" rx="5.5" fill="white" stroke="#003F12" stroke-width="5"/>
<path d="M293.586 48.4142C294.367 49.1953 295.633 49.1953 296.414 48.4142L309.142 35.6863C309.923 34.9052 309.923 33.6389 309.142 32.8579C308.361 32.0768 307.095 32.0768 306.314 32.8579L295 44.1716L283.686 32.8579C282.905 32.0768 281.639 32.0768 280.858 32.8579C280.077 33.6389 280.077 34.9052 280.858 35.6863L293.586 48.4142ZM295 45H293V47H295H297V45H295Z" fill="#003F12"/>
<circle cx="37.5" cy="39.5" r="16" fill="#00FF00" stroke="#003F12" stroke-width="5"/>
<path d="M66.6591 57H62.2273L75.0455 22.0909H79.4091L92.2273 57H87.7955L77.3636 27.6136H77.0909L66.6591 57ZM68.2955 43.3636H86.1591V47.1136H68.2955V43.3636ZM97.6648 57V22.0909H101.688V34.9773H102.028C102.324 34.5227 102.733 33.9432 103.256 33.2386C103.79 32.5227 104.551 31.8864 105.54 31.3295C106.54 30.7614 107.892 30.4773 109.597 30.4773C111.801 30.4773 113.744 31.0284 115.426 32.1307C117.108 33.233 118.42 34.7955 119.364 36.8182C120.307 38.8409 120.778 41.2273 120.778 43.9773C120.778 46.75 120.307 49.1534 119.364 51.1875C118.42 53.2102 117.114 54.7784 115.443 55.892C113.773 56.9943 111.847 57.5455 109.665 57.5455C107.983 57.5455 106.636 57.267 105.625 56.7102C104.614 56.142 103.835 55.5 103.29 54.7841C102.744 54.0568 102.324 53.4545 102.028 52.9773H101.551V57H97.6648ZM101.619 43.9091C101.619 45.8864 101.909 47.6307 102.489 49.142C103.068 50.642 103.915 51.8182 105.028 52.6705C106.142 53.5114 107.506 53.9318 109.119 53.9318C110.801 53.9318 112.205 53.4886 113.33 52.6023C114.466 51.7045 115.318 50.5 115.886 48.9886C116.466 47.4659 116.756 45.7727 116.756 43.9091C116.756 42.0682 116.472 40.4091 115.903 38.9318C115.347 37.4432 114.5 36.267 113.364 35.4034C112.239 34.5284 110.824 34.0909 109.119 34.0909C107.483 34.0909 106.108 34.5057 104.994 35.3352C103.881 36.1534 103.04 37.3011 102.472 38.7784C101.903 40.2443 101.619 41.9545 101.619 43.9091ZM137.909 57.5455C135.386 57.5455 133.21 56.9886 131.381 55.875C129.562 54.75 128.159 53.1818 127.17 51.1705C126.193 49.1477 125.705 46.7955 125.705 44.1136C125.705 41.4318 126.193 39.0682 127.17 37.0227C128.159 34.9659 129.534 33.3636 131.295 32.2159C133.068 31.0568 135.136 30.4773 137.5 30.4773C138.864 30.4773 140.21 30.7045 141.54 31.1591C142.869 31.6136 144.08 32.3523 145.17 33.375C146.261 34.3864 147.131 35.7273 147.778 37.3977C148.426 39.0682 148.75 41.125 148.75 43.5682V45.2727H128.568V41.7955H144.659C144.659 40.3182 144.364 39 143.773 37.8409C143.193 36.6818 142.364 35.767 141.284 35.0966C140.216 34.4261 138.955 34.0909 137.5 34.0909C135.898 34.0909 134.511 34.4886 133.341 35.2841C132.182 36.0682 131.29 37.0909 130.665 38.3523C130.04 39.6136 129.727 40.9659 129.727 42.4091V44.7273C129.727 46.7045 130.068 48.3807 130.75 49.7557C131.443 51.1193 132.403 52.1591 133.631 52.875C134.858 53.5795 136.284 53.9318 137.909 53.9318C138.966 53.9318 139.92 53.7841 140.773 53.4886C141.636 53.1818 142.381 52.7273 143.006 52.125C143.631 51.5114 144.114 50.75 144.455 49.8409L148.341 50.9318C147.932 52.25 147.244 53.4091 146.278 54.4091C145.313 55.3977 144.119 56.1705 142.699 56.7273C141.278 57.2727 139.682 57.5455 137.909 57.5455ZM154.869 57V30.8182H158.756V34.7727H159.028C159.506 33.4773 160.369 32.4261 161.619 31.6193C162.869 30.8125 164.278 30.4091 165.847 30.4091C166.142 30.4091 166.511 30.4148 166.955 30.4261C167.398 30.4375 167.733 30.4545 167.96 30.4773V34.5682C167.824 34.5341 167.511 34.483 167.023 34.4148C166.545 34.3352 166.04 34.2955 165.506 34.2955C164.233 34.2955 163.097 34.5625 162.097 35.0966C161.108 35.6193 160.324 36.3466 159.744 37.2784C159.176 38.1989 158.892 39.25 158.892 40.4318V57H154.869ZM185.756 30.8182V34.2273H172.188V30.8182H185.756ZM176.142 24.5455H180.165V49.5C180.165 50.6364 180.33 51.4886 180.659 52.0568C181 52.6136 181.432 52.9886 181.955 53.1818C182.489 53.3636 183.051 53.4545 183.642 53.4545C184.085 53.4545 184.449 53.4318 184.733 53.3864C185.017 53.3295 185.244 53.2841 185.415 53.25L186.233 56.8636C185.96 56.9659 185.58 57.0682 185.091 57.1705C184.602 57.2841 183.983 57.3409 183.233 57.3409C182.097 57.3409 180.983 57.0966 179.892 56.608C178.813 56.1193 177.915 55.375 177.199 54.375C176.494 53.375 176.142 52.1136 176.142 50.5909V24.5455ZM202.162 57.5455C199.798 57.5455 197.724 56.983 195.94 55.858C194.168 54.733 192.781 53.1591 191.781 51.1364C190.793 49.1136 190.298 46.75 190.298 44.0455C190.298 41.3182 190.793 38.9375 191.781 36.9034C192.781 34.8693 194.168 33.2898 195.94 32.1648C197.724 31.0398 199.798 30.4773 202.162 30.4773C204.526 30.4773 206.594 31.0398 208.366 32.1648C210.151 33.2898 211.537 34.8693 212.526 36.9034C213.526 38.9375 214.026 41.3182 214.026 44.0455C214.026 46.75 213.526 49.1136 212.526 51.1364C211.537 53.1591 210.151 54.733 208.366 55.858C206.594 56.983 204.526 57.5455 202.162 57.5455ZM202.162 53.9318C203.957 53.9318 205.435 53.4716 206.594 52.5511C207.753 51.6307 208.611 50.4205 209.168 48.9205C209.724 47.4205 210.003 45.7955 210.003 44.0455C210.003 42.2955 209.724 40.6648 209.168 39.1534C208.611 37.642 207.753 36.4205 206.594 35.4886C205.435 34.5568 203.957 34.0909 202.162 34.0909C200.366 34.0909 198.889 34.5568 197.73 35.4886C196.571 36.4205 195.713 37.642 195.156 39.1534C194.599 40.6648 194.321 42.2955 194.321 44.0455C194.321 45.7955 194.599 47.4205 195.156 48.9205C195.713 50.4205 196.571 51.6307 197.73 52.5511C198.889 53.4716 200.366 53.9318 202.162 53.9318Z" fill="#003F12"/>
</svg>
