<svg width="58" height="67" viewBox="0 0 58 67" fill="none" xmlns="http://www.w3.org/2000/svg">
<path d="M23.8 3.22852H34.2C45.6875 3.22852 55 12.541 55 24.0285V43.3428C55 54.8303 45.6875 64.1428 34.2 64.1428H23.8C12.3125 64.1428 3 54.8303 3 43.3428V24.0285C3 12.541 12.3125 3.22852 23.8 3.22852Z" fill="white"/>
<path d="M34.9429 13.6285L19.835 32.6931C19.5467 33.057 19.5467 33.5715 19.835 33.9353L34.9429 52.9999M23.8 64.1428H34.2C45.6875 64.1428 55 54.8303 55 43.3428V24.0285C55 12.541 45.6875 3.22852 34.2 3.22852H23.8C12.3125 3.22852 3 12.541 3 24.0285V43.3428C3 54.8303 12.3125 64.1428 23.8 64.1428Z" stroke="#003F12" stroke-width="5" stroke-linecap="round"/>
</svg>
